<svg xmlns="http://www.w3.org/2000/svg" xmlns:xlink="http://www.w3.org/1999/xlink" width="717.831" height="485.539" viewBox="0 0 717.831 485.539">
  <defs>
    <linearGradient id="linear-gradient" y1="0.5" x2="1" y2="0.5" gradientUnits="objectBoundingBox">
      <stop offset="0" stop-color="#20bf55"/>
      <stop offset="1" stop-color="#01baef"/>
    </linearGradient>
  </defs>
  <g id="Group_737" data-name="Group 737" transform="translate(-116.351 -2014.096)">
    <path id="Path_493" data-name="Path 493" d="M150.58,2408.8q-11.915-14.352-11.915-30.177c0-7.776,5.335-14.083,11.915-14.083s11.916,6.306,11.916,14.083Q162.5,2394.448,150.58,2408.8Zm0,18.032q18.574-1.722,29.766-12.913c5.5-5.5,6.185-13.73,1.531-18.384s-12.886-3.969-18.384,1.532q-11.19,11.19-12.913,29.765Z" fill="#e1f4e6" fill-rule="evenodd"/>
    <path id="Path_494" data-name="Path 494" d="M150.735,2426.9q-18.574-1.722-29.766-12.913c-5.5-5.5-6.185-13.73-1.531-18.384s12.886-3.969,18.384,1.532q11.19,11.19,12.913,29.765Z" fill="#e1f4e6" fill-rule="evenodd"/>
    <g id="Group_693" data-name="Group 693">
      <path id="Path_495" data-name="Path 495" d="M149.322,2428.315l-16.853-16.853,2.828-2.829,16.853,16.853Z" fill="#adeac0"/>
      <path id="Path_496" data-name="Path 496" d="M151.984,2428.325l-2.828-2.829,16.862-16.862,2.828,2.829Z" fill="#adeac0"/>
      <path id="Path_497" data-name="Path 497" d="M152.58,2453.06h-4v-68.093h4Z" fill="#adeac0"/>
    </g>
    <path id="Path_498" data-name="Path 498" d="M174.069,2436.034H126.4l4.292,36.974a9.776,9.776,0,0,0,9.71,8.649h19.66a9.775,9.775,0,0,0,9.71-8.649Z" fill="#e1f4e6" fill-rule="evenodd"/>
    <path id="Path_499" data-name="Path 499" d="M126.4,2436.034l.79,6.809h46.084l.789-6.809Z" fill="#adeac0" fill-rule="evenodd"/>
    <path id="Path_500" data-name="Path 500" d="M543.089,2443.078c219.273-1.185,300.556-132.634,286.408-213.615s-86.707-116.57-183.995-116.57-105.278-92.872-243.308-92.872c-99.3,0-185.336,81.008-189.876,168.076-8.229,157.8,111.5,256.166,330.772,254.981Z" fill="#e1f4e6" fill-rule="evenodd" opacity="0.35" style="isolation: isolate"/>
    <g id="Group_720" data-name="Group 720">
      <path id="Path_501" data-name="Path 501" d="M413.107,2014.1H564.529a29.328,29.328,0,0,1,29.327,29.327v322.6a29.328,29.328,0,0,1-29.327,29.327H413.107a29.327,29.327,0,0,1-29.327-29.327v-322.6A29.328,29.328,0,0,1,413.107,2014.1Z" fill="#adeac0" fill-rule="evenodd"/>
      <path id="Path_502" data-name="Path 502" d="M423.176,2014.1H574.6a29.327,29.327,0,0,1,29.326,29.327v322.6a29.327,29.327,0,0,1-29.326,29.327H423.176a29.327,29.327,0,0,1-29.327-29.327v-322.6A29.328,29.328,0,0,1,423.176,2014.1Z" fill="#e1f4e6" fill-rule="evenodd"/>
      <g id="Group_694" data-name="Group 694">
        <path id="A" d="M406.659,2052.478H591.115v304.487H406.659Z" fill="#fff" fill-rule="evenodd"/>
      </g>
      <g id="Group_719" data-name="Group 719">
        <g id="Group_713" data-name="Group 713">
          <g id="Group_700" data-name="Group 700">
            <g id="Group_699" data-name="Group 699">
              <g id="Group_698" data-name="Group 698">
                <g id="Group_695" data-name="Group 695">
                  <path id="Path_503" data-name="Path 503" d="M415.092,2084.155v-4.3h1.7a1.426,1.426,0,1,1,0,2.845h-1.382v1.455h-.315Zm1.7-1.743a1.14,1.14,0,1,0,0-2.275h-1.382v2.276h1.382Zm3.007,1.792c-.526,0-1.071-.27-1.071-.834,0-.644.592-.958,1.185-.958a2.884,2.884,0,0,1,1.111.222v-.515c0-.593-.539-.707-1.037-.707a2.024,2.024,0,0,0-.97.228l-.07-.246a2.388,2.388,0,0,1,1.078-.246c.652,0,1.265.24,1.265.975v1.351c0,.355-.02.558.381.509l.012.2c-.514.08-.652-.1-.633-.563a1.352,1.352,0,0,1-1.265.583Zm1.222-1.333a2.29,2.29,0,0,0-1.073-.234c-.45,0-.927.21-.927.693,0,.453.406.593.827.593a1.13,1.13,0,0,0,1.173-.741v-.311Zm2.654-1.715a1.332,1.332,0,0,1,.758.226l-.108.258a1.17,1.17,0,0,0-.689-.2.831.831,0,0,0-.882.806v1.912h-.3v-2.276c0-.289-.007-.474-.388-.422l-.011-.267c.481-.08.676.1.676.444a1.018,1.018,0,0,1,.945-.478Z"/>
                  <path id="Path_504" data-name="Path 504" d="M425.652,2081.211h1.185v.251h-1.185v1.6c0,.613.2.866.588.888a2.227,2.227,0,0,0,.689-.14l.044.251a2.407,2.407,0,0,1-.752.143c-.563,0-.869-.338-.869-1.119v-1.6l-.691-.02v-.232h.691l.025-.889h.275v.87Zm4.952,3.006a1.528,1.528,0,1,1,.006-3.054,1.479,1.479,0,0,1,1.579,1.523,1.5,1.5,0,0,1-1.585,1.533Zm0-.262a1.243,1.243,0,0,0,1.285-1.271,1.283,1.283,0,1,0-1.284,1.271Zm2.673-2.485h-.708v-.258h.708v-.533c0-1.061.852-1.209,1.659-.889l-.062.24c-.622-.263-1.3-.226-1.3.64v.527h1.166v.258h-1.166v2.7h-.3v-2.684Zm2.955-1.314v-.3h3.2v.3h-1.44v4h-.3v-4Zm4.61,1.013a1.347,1.347,0,0,1,.758.227l-.107.258a1.156,1.156,0,0,0-.688-.2.831.831,0,0,0-.883.805v1.9h-.3v-2.276c0-.289-.006-.474-.388-.422l-.015-.267c.482-.08.677.1.677.444a1.018,1.018,0,0,1,.945-.478Zm2.122,3.048c-.526,0-1.071-.269-1.071-.834,0-.644.575-.958,1.185-.958a2.887,2.887,0,0,1,1.108.222v-.515c0-.593-.539-.707-1.037-.707a2.01,2.01,0,0,0-.97.229l-.068-.246a2.387,2.387,0,0,1,1.077-.246c.651,0,1.266.24,1.266.974v1.351c0,.356-.019.559.381.51l.012.2c-.513.08-.652-.1-.633-.563a1.351,1.351,0,0,1-1.263.582Zm1.221-1.333a2.318,2.318,0,0,0-1.071-.234c-.452,0-.928.211-.928.694,0,.453.408.592.827.592a1.156,1.156,0,0,0,1.185-.741v-.343Zm3.726,1.286v-1.8a.894.894,0,0,0-.983-.933.947.947,0,0,0-1.028.982v1.748h-.3v-2.193c0-.474-.052-.571-.385-.522l-.006-.257c.456-.068.67.03.67.5a1.248,1.248,0,0,1,1.115-.541,1.133,1.133,0,0,1,1.214,1.209v1.8h-.3Zm1.344-.824c.051.445.548.627,1.036.627s1-.178,1-.6c0-.548-.6-.548-1-.6-.6-.066-1.244-.172-1.244-.779s.6-.834,1.222-.834,1.221.252,1.221.779h-.276c0-.367-.469-.533-.94-.533s-.982.166-.951.584c0,.454.657.488,1.007.54.632.086,1.266.141,1.247.842,0,.589-.615.844-1.3.844-.637,0-1.253-.245-1.321-.871h.293Zm3.132-.651v-2.825h.314v2.8a1.33,1.33,0,0,0,2.654,0v-2.817h.307v2.824a1.477,1.477,0,0,1-1.629,1.522,1.492,1.492,0,0,1-1.649-1.522Zm6.725,1.474v-1.8a.9.9,0,0,0-.984-.933.947.947,0,0,0-1.026.982v1.748h-.3v-2.192c0-.474-.049-.572-.383-.523l-.005-.256c.444-.068.67.029.67.5a1.245,1.245,0,0,1,1.114-.54,1.125,1.125,0,0,1,1.214,1.029,1.188,1.188,0,0,1,0,.179v1.8h-.3Zm1.336-4.207a.214.214,0,0,1,.222.207.208.208,0,0,1-.216.208.219.219,0,0,1-.243-.208A.211.211,0,0,1,460.448,2079.962Zm.148,4.207h-.326v-2.958h.326v2.958Zm2.525.047a1.529,1.529,0,1,1,1.585-1.533A1.5,1.5,0,0,1,463.121,2084.216Zm0-.262a1.242,1.242,0,0,0,1.283-1.271,1.284,1.284,0,1,0-1.281,1.271Zm4.795.215v-1.8a.894.894,0,0,0-.982-.933.948.948,0,0,0-1.028.982v1.748h-.3v-2.192c0-.474-.05-.572-.385-.523l-.006-.256c.456-.068.67.029.67.5a1.243,1.243,0,0,1,1.115-.54,1.126,1.126,0,0,1,1.214,1.029,1.075,1.075,0,0,1,0,.179v1.8h-.3Z"/>
                </g>
                <g id="Group_697" data-name="Group 697">
                  <g id="Group_696" data-name="Group 696">
                    <path id="Path_505" data-name="Path 505" d="M422.512,2061.553a6.563,6.563,0,0,1,6.665,4.825h-2.34a4.411,4.411,0,0,0-4.314-2.639,4.863,4.863,0,0,0-5.011,5.218,4.923,4.923,0,0,0,5.011,5.154,4.331,4.331,0,0,0,4.376-2.888h2.379c-.736,3.525-3.766,5.073-6.754,5.073-4.033,0-7.506-2.7-7.506-7.34a7.178,7.178,0,0,1,7.494-7.4m14.433,12.661v1.937h-7.113v-1.937h2.337v-10.579h-2.147v-1.919h6.735v1.919h-2.148v10.579Zm10.457-5.651a3.322,3.322,0,0,1,2.393,3.34c0,2.577-1.81,4.248-4.671,4.248h-6.586v-14.435h5.977c2.672,0,4.628,1.34,4.628,4.062a2.936,2.936,0,0,1-1.724,2.785H447.4Zm-6.439-4.763v3.979h3.352c1.41,0,2.377-.536,2.4-1.925,0-1.422-.968-2.041-2.4-2.041h-3.367Zm0,5.924v4.3h4a2.175,2.175,0,0,0,2.4-2.145,2.132,2.132,0,0,0-.741-1.711,3.1,3.1,0,0,0-1.915-.456h-3.739Zm16.915,4.473v1.938h-7.113v-1.921H453.1v-10.579h-2.148v-1.919h6.734v1.919h-2.148v10.579Zm4.04-.228h6.335v2.166h-8.8v-14.419h2.462Z" fill="#4b002a"/>
                  </g>
                </g>
              </g>
              <path id="Path_506" data-name="Path 506" d="M538.151,2076.905a4.44,4.44,0,0,0,2.814-.8,2.66,2.66,0,0,0,1.019-2.213,2.865,2.865,0,0,0-.252-1.244,2.666,2.666,0,0,0-.795-.948,7.263,7.263,0,0,0-1.707-.889,9.678,9.678,0,0,1-1.432-.687,1.77,1.77,0,0,1-.572-.554,1.361,1.361,0,0,1-.173-.7,1.2,1.2,0,0,1,.434-.965,1.936,1.936,0,0,1,1.274-.366,6.619,6.619,0,0,1,2.518.592h0l.548-1.41a7.41,7.41,0,0,0-3.022-.666,3.9,3.9,0,0,0-2.524.759,2.531,2.531,0,0,0-.94,2.083,2.831,2.831,0,0,0,.592,1.807,4.894,4.894,0,0,0,2.04,1.337,6.723,6.723,0,0,1,1.851.978,1.312,1.312,0,0,1,.449,1.007,1.27,1.27,0,0,1-.489,1.049,2.408,2.408,0,0,1-1.515.391,6.513,6.513,0,0,1-1.515-.2,7.948,7.948,0,0,1-1.537-.534h0v1.635a6.726,6.726,0,0,0,2.935.557Zm9.192,0a7.717,7.717,0,0,0,1.453-.123,5.233,5.233,0,0,0,1.259-.419h0v-1.381a6.9,6.9,0,0,1-1.313.445,6.139,6.139,0,0,1-1.318.148,2.2,2.2,0,0,1-1.671-.625,2.613,2.613,0,0,1-.629-1.789h5.332v-.919a3.681,3.681,0,0,0-.918-2.647,3.3,3.3,0,0,0-2.5-.962,3.374,3.374,0,0,0-2.684,1.121,4.529,4.529,0,0,0-.978,3.081,4.193,4.193,0,0,0,1.037,3,3.847,3.847,0,0,0,2.918,1.088Zm1.439-4.992h-3.628a2.433,2.433,0,0,1,.582-1.5,1.716,1.716,0,0,1,1.3-.514,1.643,1.643,0,0,1,1.274.51,2.2,2.2,0,0,1,.477,1.5h0Zm5.3,8.4v-3.261q0-.218-.1-1.229h.1a3.074,3.074,0,0,0,4.7-.008,5.95,5.95,0,0,0,.015-6.1,2.772,2.772,0,0,0-2.333-1.084,2.659,2.659,0,0,0-2.385,1.215H554l-.237-1.071h-1.375v11.557h1.7Zm1.974-4.8a1.717,1.717,0,0,1-1.51-.655,3.747,3.747,0,0,1-.462-2.115h0v-.252a3.081,3.081,0,0,1,.466-1.9,1.763,1.763,0,0,1,1.481-.592,1.58,1.58,0,0,1,1.393.69,3.614,3.614,0,0,1,.473,2.036,3.731,3.731,0,0,1-.476,2.062,1.533,1.533,0,0,1-1.36.723Zm10.14-5.707.731-3.623H565.7c-.26.548-.514,1.164-.76,1.844l-.528,1.62.089.159h1.7Zm8.724,6.949v-1.494H569.9v-.074l1.837-1.778a17.844,17.844,0,0,0,1.768-1.848,5.493,5.493,0,0,0,.788-1.327,3.683,3.683,0,0,0,.257-1.36,2.612,2.612,0,0,0-.889-2.074,3.48,3.48,0,0,0-2.365-.77,5.375,5.375,0,0,0-1.772.3,5.624,5.624,0,0,0-1.714,1.057h0l.919,1.121a5.441,5.441,0,0,1,1.312-.81,3.152,3.152,0,0,1,1.175-.224,1.675,1.675,0,0,1,1.189.412,1.436,1.436,0,0,1,.429,1.128,2.608,2.608,0,0,1-.18.976,4.118,4.118,0,0,1-.575.974,23.4,23.4,0,0,1-1.6,1.753h0l-2.725,2.74v1.3h7.169Zm4.859.145a3.027,3.027,0,0,0,2.71-1.337,9.708,9.708,0,0,0-.025-8.158,3.35,3.35,0,0,0-5.386-.061,7.568,7.568,0,0,0-.885,4.127,7.381,7.381,0,0,0,.911,4.049,3,3,0,0,0,2.676,1.382Zm0-1.417a1.481,1.481,0,0,1-1.422-.926,7.7,7.7,0,0,1-.445-3.088,7.883,7.883,0,0,1,.445-3.11,1.462,1.462,0,0,1,1.422-.934,1.494,1.494,0,0,1,1.427.951,10.692,10.692,0,0,1,0,6.152,1.494,1.494,0,0,1-1.427.94Z" fill="#052f5f"/>
            </g>
          </g>
          <g id="Group_710" data-name="Group 710">
            <g id="Group_708" data-name="Group 708">
              <g id="Group_701" data-name="Group 701">
                <circle id="B" cx="56.562" cy="56.562" r="56.562" transform="translate(440.182 2105.336)"/>
              </g>
              <g id="Group_702" data-name="Group 702">
                <circle id="B-2" data-name="B" cx="56.562" cy="56.562" r="56.562" transform="translate(440.182 2105.336)" fill="#e1f4e6"/>
              </g>
              <g id="Group_703" data-name="Group 703">
                <circle id="D" cx="40.732" cy="40.732" r="40.732" transform="translate(456.475 2121.628)"/>
              </g>
              <g id="Group_704" data-name="Group 704">
                <circle id="D-2" data-name="D" cx="40.732" cy="40.732" r="40.732" transform="translate(456.475 2121.628)" fill="#fff"/>
              </g>
              <g id="Group_705" data-name="Group 705">
                <path id="Path_507" data-name="Path 507" d="M465.621,2210.225a1.815,1.815,0,0,1-1.039-.327,58.795,58.795,0,0,1-18.267-20.531,58.539,58.539,0,0,1,39.787-84.859,1.823,1.823,0,0,1,.735,3.571,54.887,54.887,0,0,0-20.172,98.826,1.823,1.823,0,0,1-1.043,3.32Z" fill="#e5121b"/>
                <path id="Path_508" data-name="Path 508" d="M523.829,2113.185a1.814,1.814,0,0,1-.831-.2,54.277,54.277,0,0,0-25.036-6.032c-1.124,0-2.269.035-3.4.1-.038,0-.075,0-.112,0a1.823,1.823,0,0,1-.109-3.643c1.208-.073,2.427-.111,3.625-.111a58.286,58.286,0,0,1,26.7,6.435,1.823,1.823,0,0,1-.834,3.445Z" fill="#fd4501"/>
                <path id="Path_509" data-name="Path 509" d="M548.708,2138.337a1.823,1.823,0,0,1-1.632-1.008,55.287,55.287,0,0,0-17.858-20.612,1.823,1.823,0,1,1,2.08-2.995,58.768,58.768,0,0,1,19.038,21.974,1.824,1.824,0,0,1-1.629,2.639Z" fill="#ffaf00"/>
                <path id="Path_510" data-name="Path 510" d="M553.182,2176.554a1.825,1.825,0,0,1-1.777-2.237,55.267,55.267,0,0,0-1.209-29.348,1.823,1.823,0,0,1,3.47-1.12,58.913,58.913,0,0,1,1.291,31.294A1.824,1.824,0,0,1,553.182,2176.554Z" fill="#52da1f"/>
                <path id="Path_511" data-name="Path 511" d="M530.264,2210.25a1.823,1.823,0,0,1-1.041-3.321A54.858,54.858,0,0,0,548.89,2182.3a1.823,1.823,0,0,1,3.382,1.361,58.717,58.717,0,0,1-20.97,26.267A1.814,1.814,0,0,1,530.264,2210.25Z" fill="#08a42a"/>
              </g>
              <path id="Path_512" data-name="Path 512" d="M481.188,2173.888a7.877,7.877,0,0,0,5.155-1.561,5.1,5.1,0,0,0,1.9-4.153,4.895,4.895,0,0,0-1.037-3.036,9.919,9.919,0,0,0-3.5-2.593c2.577-1.269,3.851-2.977,3.851-5.124a4.463,4.463,0,0,0-1.733-3.659,7.38,7.38,0,0,0-4.71-1.367,7.536,7.536,0,0,0-4.668,1.354,4.316,4.316,0,0,0-1.79,3.629,5.216,5.216,0,0,0,.815,2.864,8.06,8.06,0,0,0,2.736,2.42,8.369,8.369,0,0,0-3.214,2.484,5.348,5.348,0,0,0-.981,3.143,4.937,4.937,0,0,0,1.877,4.139,8.428,8.428,0,0,0,5.283,1.46Zm0-12.716a10.935,10.935,0,0,1-2.033-1.152,3.5,3.5,0,0,1-.919-1.066,2.783,2.783,0,0,1-.315-1.332,2.319,2.319,0,0,1,.889-1.925,3.563,3.563,0,0,1,2.306-.711,3.613,3.613,0,0,1,2.34.711,2.341,2.341,0,0,1,.881,1.925,2.929,2.929,0,0,1-.709,1.955,6.76,6.76,0,0,1-2.429,1.6Zm-.059,10.139a4.452,4.452,0,0,1-2.835-.824,2.775,2.775,0,0,1-1.046-2.31,3.465,3.465,0,0,1,.83-2.284,7.321,7.321,0,0,1,2.721-1.826h0l.415.186a8.886,8.886,0,0,1,2.864,1.778,2.962,2.962,0,0,1,.945,2.118,2.845,2.845,0,0,1-1.022,2.31,4.373,4.373,0,0,1-2.87.852Zm16.8,2.577a7.877,7.877,0,0,0,5.155-1.561,5.1,5.1,0,0,0,1.9-4.153,4.895,4.895,0,0,0-1.037-3.036,9.91,9.91,0,0,0-3.5-2.593c2.578-1.269,3.851-2.977,3.851-5.124a4.463,4.463,0,0,0-1.733-3.659,7.38,7.38,0,0,0-4.71-1.367,7.538,7.538,0,0,0-4.668,1.354,4.316,4.316,0,0,0-1.79,3.629,5.216,5.216,0,0,0,.815,2.864,8.06,8.06,0,0,0,2.736,2.42,8.369,8.369,0,0,0-3.214,2.484,5.348,5.348,0,0,0-.981,3.143,4.937,4.937,0,0,0,1.877,4.139,8.428,8.428,0,0,0,5.283,1.46Zm0-12.716a10.935,10.935,0,0,1-2.033-1.152,3.5,3.5,0,0,1-.919-1.066,2.783,2.783,0,0,1-.315-1.332,2.319,2.319,0,0,1,.889-1.925,3.565,3.565,0,0,1,2.306-.711,3.611,3.611,0,0,1,2.34.711,2.341,2.341,0,0,1,.881,1.925,2.929,2.929,0,0,1-.709,1.955,6.759,6.759,0,0,1-2.429,1.6Zm-.059,10.139a4.452,4.452,0,0,1-2.835-.824,2.774,2.774,0,0,1-1.045-2.31,3.464,3.464,0,0,1,.829-2.284,7.321,7.321,0,0,1,2.721-1.826h0l.415.186a8.886,8.886,0,0,1,2.864,1.778,2.964,2.964,0,0,1,.945,2.118,2.845,2.845,0,0,1-1.022,2.31,4.373,4.373,0,0,1-2.87.852Zm16.74,2.577a5.984,5.984,0,0,0,5.362-2.651q1.755-2.654,1.754-8.1,0-5.3-1.8-8.047a6.629,6.629,0,0,0-10.66-.122q-1.755,2.631-1.754,8.171,0,5.283,1.8,8.019A5.944,5.944,0,0,0,514.606,2173.888Zm0-2.807a2.938,2.938,0,0,1-2.814-1.832,21.708,21.708,0,0,1,0-12.243,3.067,3.067,0,0,1,5.643.034,21.17,21.17,0,0,1,0,12.181,2.959,2.959,0,0,1-2.829,1.862Z" fill="#052f5f"/>
              <g id="Group_706" data-name="Group 706">
                <circle id="F" cx="5.132" cy="5.132" r="5.132" transform="translate(538.672 2188.592)"/>
              </g>
              <g id="Group_707" data-name="Group 707">
                <circle id="F-2" data-name="F" cx="5.132" cy="5.132" r="5.132" transform="translate(538.672 2188.592)" fill="#fff"/>
                <path id="F_-_Outline" data-name="F - Outline" d="M5.132-.99A6.122,6.122,0,1,1-.99,5.132,6.129,6.129,0,0,1,5.132-.99Zm0,10.264A4.142,4.142,0,1,0,.99,5.132,4.147,4.147,0,0,0,5.132,9.274Z" transform="translate(538.672 2188.592)" fill="#08a42a"/>
              </g>
            </g>
            <g id="Group_709" data-name="Group 709">
              <path id="Path_513" data-name="Path 513" d="M544.846,2216.566a3.645,3.645,0,0,0,3-1.22,5.758,5.758,0,0,0,1-3.694,4.916,4.916,0,0,0-.361-1.985,2.809,2.809,0,0,0-1.025-1.263,2.774,2.774,0,0,0-1.558-.436,2.634,2.634,0,0,0-2.007.776,2.9,2.9,0,0,0-.736,2.074,2.7,2.7,0,0,0,.636,1.9,2.26,2.26,0,0,0,1.748.693,2.516,2.516,0,0,0,1.12-.23,2.029,2.029,0,0,0,.816-.745h.068a3.558,3.558,0,0,1-.733,2.3,2.627,2.627,0,0,1-2.034.733,3.787,3.787,0,0,1-1.025-.144h0v1.129a4.721,4.721,0,0,0,1.1.091Zm1.03-4.209a1.246,1.246,0,0,1-1.036-.41,1.77,1.77,0,0,1-.347-1.126,1.983,1.983,0,0,1,.37-1.28,1.289,1.289,0,0,1,1.071-.455,1.349,1.349,0,0,1,.813.258,1.7,1.7,0,0,1,.553.7,2.312,2.312,0,0,1,.2.954,1.228,1.228,0,0,1-.464.951,1.653,1.653,0,0,1-1.145.407Zm6.814,4.209a2.391,2.391,0,0,0,2.144-1.059,5.971,5.971,0,0,0,.7-3.258,5.884,5.884,0,0,0-.722-3.219,2.379,2.379,0,0,0-2.125-1.1,2.414,2.414,0,0,0-2.139,1.037,5.977,5.977,0,0,0-.7,3.267,5.866,5.866,0,0,0,.721,3.209,2.379,2.379,0,0,0,2.118,1.1Zm0-1.122a1.173,1.173,0,0,1-1.126-.734,6.053,6.053,0,0,1-.352-2.444,6.164,6.164,0,0,1,.352-2.451,1.171,1.171,0,0,1,1.126-.739,1.191,1.191,0,0,1,1.131.741,8.441,8.441,0,0,1,0,4.871,1.184,1.184,0,0,1-1.131.745Zm6.7,1.122a2.392,2.392,0,0,0,2.144-1.059,5.981,5.981,0,0,0,.7-3.258,5.894,5.894,0,0,0-.721-3.219,2.379,2.379,0,0,0-2.125-1.1,2.414,2.414,0,0,0-2.139,1.037,5.978,5.978,0,0,0-.7,3.267,5.866,5.866,0,0,0,.721,3.209,2.377,2.377,0,0,0,2.118,1.1Zm0-1.122a1.171,1.171,0,0,1-1.126-.734,6.05,6.05,0,0,1-.353-2.444,6.161,6.161,0,0,1,.353-2.451,1.171,1.171,0,0,1,1.126-.739,1.191,1.191,0,0,1,1.131.741,8.441,8.441,0,0,1,0,4.871,1.184,1.184,0,0,1-1.131.745ZM435.2,2216.566a3.942,3.942,0,0,0,2.429-.656,2.214,2.214,0,0,0,.854-1.866,1.8,1.8,0,0,0-.5-1.333,2.516,2.516,0,0,0-1.511-.627h0v-.044a2.352,2.352,0,0,0,1.307-.711,1.937,1.937,0,0,0,.463-1.326,1.785,1.785,0,0,0-.711-1.5,3.179,3.179,0,0,0-1.976-.544,4.492,4.492,0,0,0-2.675.847h0l.659.94a4.352,4.352,0,0,1,1.043-.525,3.167,3.167,0,0,1,.917-.135,1.574,1.574,0,0,1,1.031.292,1.026,1.026,0,0,1,.349.83c0,.924-.666,1.386-2.005,1.386h-.741v1.1h.741a3.346,3.346,0,0,1,1.674.316,1.094,1.094,0,0,1,.533.985,1.3,1.3,0,0,1-.481,1.116,2.423,2.423,0,0,1-1.455.362,4.908,4.908,0,0,1-1.145-.144,5.4,5.4,0,0,1-1.129-.407h0v1.2a5.468,5.468,0,0,0,2.35.453Zm7.2,0a2.392,2.392,0,0,0,2.144-1.059,5.981,5.981,0,0,0,.7-3.258,5.885,5.885,0,0,0-.721-3.219,2.379,2.379,0,0,0-2.125-1.1,2.414,2.414,0,0,0-2.139,1.037,5.978,5.978,0,0,0-.7,3.267,5.866,5.866,0,0,0,.721,3.209,2.379,2.379,0,0,0,2.118,1.1Zm0-1.122a1.173,1.173,0,0,1-1.126-.734,6.053,6.053,0,0,1-.352-2.444,6.164,6.164,0,0,1,.352-2.451,1.171,1.171,0,0,1,1.126-.739,1.191,1.191,0,0,1,1.131.741,8.441,8.441,0,0,1,0,4.871,1.184,1.184,0,0,1-1.131.745Zm6.695,1.122a2.392,2.392,0,0,0,2.144-1.059,5.981,5.981,0,0,0,.7-3.258,5.894,5.894,0,0,0-.721-3.219,2.379,2.379,0,0,0-2.125-1.1,2.414,2.414,0,0,0-2.139,1.037,5.977,5.977,0,0,0-.7,3.267,5.866,5.866,0,0,0,.721,3.209,2.378,2.378,0,0,0,2.118,1.1Zm0-1.122a1.171,1.171,0,0,1-1.126-.734,6.05,6.05,0,0,1-.353-2.444,6.161,6.161,0,0,1,.353-2.451,1.171,1.171,0,0,1,1.126-.739,1.191,1.191,0,0,1,1.131.741,8.441,8.441,0,0,1,0,4.871,1.184,1.184,0,0,1-1.131.745Z" fill="#052f5f" opacity="0.4" style="isolation: isolate"/>
            </g>
          </g>
          <g id="Group_711" data-name="Group 711">
            <path id="Path_514" data-name="Path 514" d="M428.5,2291.236v-5.442l-.1-2.435-.035-.465h.059l5.149,8.342h2.1v-10.467H434.1v5.484l.044,1.63.06,1.185h-.045l-5.134-8.3h-2.079v10.467Zm13.212.144a7.585,7.585,0,0,0,1.44-.122,5.166,5.166,0,0,0,1.245-.415h0v-1.367a6.569,6.569,0,0,1-1.3.44,6.114,6.114,0,0,1-1.306.133,2.174,2.174,0,0,1-1.654-.619,2.59,2.59,0,0,1-.623-1.771h5.278v-.91a3.648,3.648,0,0,0-.91-2.621,3.255,3.255,0,0,0-2.478-.953,3.338,3.338,0,0,0-2.655,1.111,4.489,4.489,0,0,0-.967,3.051,4.09,4.09,0,0,0,1.041,2.969,3.837,3.837,0,0,0,2.888,1.078Zm1.425-4.94h-3.6a2.41,2.41,0,0,1,.578-1.481,1.7,1.7,0,0,1,1.285-.508,1.617,1.617,0,0,1,1.259.5,2.2,2.2,0,0,1,.474,1.486h0Zm4.446,4.8,1.948-2.962,1.955,2.962h1.9l-2.814-4.044,2.663-3.873h-1.9l-1.819,2.77-1.8-2.77h-1.919l2.655,3.873-2.784,4.044h1.919Zm9.746.144a5.118,5.118,0,0,0,.913-.083,3.315,3.315,0,0,0,.72-.205h0v-1.268a4.083,4.083,0,0,1-1.23.193,1.114,1.114,0,0,1-.8-.29,1.187,1.187,0,0,1-.3-.9h0v-4.24h2.256v-1.273h-2.256v-1.763h-1.037l-.573,1.674-1.16.616v.745h1.081v4.266q0,2.518,2.392,2.521Zm9.81,0a3.3,3.3,0,0,0,1.478-.316,2.41,2.41,0,0,0,1-.866h.085l.237,1.036h1.325v-7.918H469.57v3.946a3.487,3.487,0,0,1-.5,2.122,1.853,1.853,0,0,1-1.555.634,1.421,1.421,0,0,1-1.167-.454,2.116,2.116,0,0,1-.37-1.363h0v-4.883h-1.7v5.176a2.965,2.965,0,0,0,.711,2.17,2.9,2.9,0,0,0,2.148.716Zm8.206,3.38V2291.5c0-.144-.034-.548-.1-1.218h.1a3.042,3.042,0,0,0,4.659-.007,4.926,4.926,0,0,0,.842-3.029,4.836,4.836,0,0,0-.827-3.014,2.751,2.751,0,0,0-2.31-1.074,2.633,2.633,0,0,0-2.363,1.2h-.086l-.237-1.059H473.66v11.442h1.682Zm1.955-4.74a1.659,1.659,0,0,1-1.481-.647,3.828,3.828,0,0,1-.459-2.095h0v-.252a3.043,3.043,0,0,1,.462-1.876,1.745,1.745,0,0,1,1.466-.587,1.558,1.558,0,0,1,1.377.685,3.565,3.565,0,0,1,.47,2.014,3.669,3.669,0,0,1-.474,2.041,1.52,1.52,0,0,1-1.348.715Zm8.17,1.374a2.689,2.689,0,0,0,2.37-1.182h.078l.294,1.037h1.318v-11.141h-1.689V2283a10.135,10.135,0,0,0,.122,1.347h-.086a2.723,2.723,0,0,0-2.377-1.153,2.785,2.785,0,0,0-2.33,1.084,5.886,5.886,0,0,0-.012,6.047,2.756,2.756,0,0,0,2.31,1.073Zm.452-1.359a1.571,1.571,0,0,1-1.4-.691,3.587,3.587,0,0,1-.465-2.008,3.685,3.685,0,0,1,.48-2.051,1.543,1.543,0,0,1,1.367-.72,1.828,1.828,0,0,1,1.525.629,3.431,3.431,0,0,1,.489,2.127h0v.237a3.035,3.035,0,0,1-.489,1.9,1.828,1.828,0,0,1-1.51.584Zm7.933,1.359a3.688,3.688,0,0,0,1.488-.26,3.232,3.232,0,0,0,1.153-.985h.059l.336,1.1h1.2v-5.332a2.578,2.578,0,0,0-.77-2.07,3.425,3.425,0,0,0-2.281-.659,6.535,6.535,0,0,0-1.446.175,5.807,5.807,0,0,0-1.41.512h0l.544,1.2c.343-.148.7-.3,1.073-.422a3.846,3.846,0,0,1,1.168-.178,1.449,1.449,0,0,1,1.1.376,1.6,1.6,0,0,1,.355,1.135h0v.422l-1.367.045a5.242,5.242,0,0,0-2.77.681,2.09,2.09,0,0,0-.909,1.847,2.354,2.354,0,0,0,.654,1.783,2.517,2.517,0,0,0,1.822.63Zm.53-1.288a1.349,1.349,0,0,1-.945-.291,1.058,1.058,0,0,1-.315-.819,1.2,1.2,0,0,1,.54-1.084,3.469,3.469,0,0,1,1.729-.4h0l1.016-.044v.687a1.855,1.855,0,0,1-.556,1.437,2.086,2.086,0,0,1-1.47.512Zm8.591,1.288a5.026,5.026,0,0,0,.912-.083,3.334,3.334,0,0,0,.72-.2h0v-1.268a4.084,4.084,0,0,1-1.229.193,1.113,1.113,0,0,1-.8-.291,1.182,1.182,0,0,1-.3-.9h0v-4.239h2.256v-1.274h-2.256v-1.762h-1.037l-.573,1.674-1.16.616v.745h1.082v4.266q0,2.518,2.392,2.52Zm6.672,0a7.67,7.67,0,0,0,1.44-.121,5.173,5.173,0,0,0,1.246-.415h0v-1.367a6.674,6.674,0,0,1-1.3.44,6.2,6.2,0,0,1-1.307.133,2.174,2.174,0,0,1-1.654-.619,2.587,2.587,0,0,1-.622-1.771h5.277v-.91a3.645,3.645,0,0,0-.909-2.621,3.258,3.258,0,0,0-2.478-.953,3.335,3.335,0,0,0-2.656,1.111,4.494,4.494,0,0,0-.967,3.051,4.087,4.087,0,0,0,1.041,2.968,3.839,3.839,0,0,0,2.888,1.079Zm1.425-4.939h-3.6a2.416,2.416,0,0,1,.578-1.481,1.7,1.7,0,0,1,1.286-.509,1.617,1.617,0,0,1,1.259.5,2.211,2.211,0,0,1,.474,1.486h0ZM521.7,2291.4a3.562,3.562,0,0,0,2.77-1.088,4.327,4.327,0,0,0,.995-3.029,4.276,4.276,0,0,0-1-2.982,3.488,3.488,0,0,0-2.721-1.106,3.575,3.575,0,0,0-2.784,1.081,4.3,4.3,0,0,0-.988,3.007,4.887,4.887,0,0,0,.459,2.177,3.305,3.305,0,0,0,1.311,1.44,3.8,3.8,0,0,0,1.962.5Zm.03-1.374q-2.027,0-2.027-2.74a3.556,3.556,0,0,1,.474-2.012,1.725,1.725,0,0,1,1.536-.7q2.022,0,2.019,2.714,0,2.741-2,2.74Zm7.354,1.229v-3.946a3.461,3.461,0,0,1,.494-2.112,1.865,1.865,0,0,1,1.561-.629,1.476,1.476,0,0,1,1.185.452,2.038,2.038,0,0,1,.371,1.367h0v4.868h1.688v-5.162q0-2.9-2.85-2.9a3.422,3.422,0,0,0-1.46.308,2.338,2.338,0,0,0-1.016.874h-.086l-.237-1.037h-1.318v7.919H529.1Zm17.97,0v-1.481h-4.969v-.071l1.819-1.763a18.064,18.064,0,0,0,1.751-1.829,5.492,5.492,0,0,0,.78-1.314,3.584,3.584,0,0,0,.255-1.346,2.572,2.572,0,0,0-.881-2.051,3.452,3.452,0,0,0-2.34-.763,4.962,4.962,0,0,0-1.754.308,5.878,5.878,0,0,0-1.7,1.046h0l.91,1.11a5.377,5.377,0,0,1,1.3-.8,3.129,3.129,0,0,1,1.164-.223,1.635,1.635,0,0,1,1.178.409,1.475,1.475,0,0,1,.426,1.117,2.6,2.6,0,0,1-.178.967,4.193,4.193,0,0,1-.568.963,23.326,23.326,0,0,1-1.585,1.736h0l-2.7,2.713v1.274h7.11Zm7.332,0v-2.284h1.41v-1.4h-1.41v-6.817h-1.639l-4.785,6.917v1.3h4.785v2.284Zm-1.639-3.68h-3.215l2.6-3.78a8.092,8.092,0,0,0,.629-1.145h.06l-.072,2.3v2.628Zm7.059,3.821a5.114,5.114,0,0,0,.912-.083,3.319,3.319,0,0,0,.72-.2h0v-1.268a4.076,4.076,0,0,1-1.229.192,1.113,1.113,0,0,1-.8-.29,1.183,1.183,0,0,1-.3-.9h0V2284.6h2.256v-1.274h-2.256v-1.763h-1.037l-.573,1.674-1.16.616v.745h1.082v4.266q0,2.52,2.392,2.521Zm4.9-.144v-3.931a3.487,3.487,0,0,1,.5-2.122,1.857,1.857,0,0,1,1.555-.634,1.476,1.476,0,0,1,1.185.452,2.039,2.039,0,0,1,.371,1.367h0v4.868H570v-5.162a2.554,2.554,0,0,0-2.878-2.9,3.086,3.086,0,0,0-1.428.316,2.339,2.339,0,0,0-.955.888h-.108a13.292,13.292,0,0,0,.086-1.453h0v-2.829h-1.672v11.142h1.682Z" fill="#052f5f" opacity="0.6" style="isolation: isolate"/>
            <path id="Path_515" data-name="Path 515" d="M413.3,2266.323H583.4v1.481H413.3Z" fill="#052f5f" fill-rule="evenodd" opacity="0.1" style="isolation: isolate"/>
          </g>
          <g id="Group_712" data-name="Group 712">
            <path id="Path_516" data-name="Path 516" d="M467.258,2254.577v-2.2h-4.571v-3.24h4.251v-2.181h-4.251V2244.2h4.571v-2.182h-7.234v12.56Zm4.1,0,2.03-3.291,2.018,3.291h2.982l-3.259-4.9,3.126-4.7H475.28l-1.881,3.059-1.866-3.059h-2.986l3.092,4.7-3.255,4.9Zm12.39.172a7.292,7.292,0,0,0,1.637-.154,4.225,4.225,0,0,0,1.284-.558h0v-2.243a5.326,5.326,0,0,1-1.288.631,4.657,4.657,0,0,1-1.4.2q-2.043,0-2.044-2.819,0-2.9,2.044-2.9a3.754,3.754,0,0,1,1.067.158c.389.119.774.255,1.151.409h0l.773-2.029a6.66,6.66,0,0,0-2.992-.652,4.569,4.569,0,0,0-3.5,1.293,5.265,5.265,0,0,0-1.22,3.742q0,4.923,4.485,4.923Zm9.48,0a9.3,9.3,0,0,0,1.907-.167,6.857,6.857,0,0,0,1.47-.511h0v-2.03a8.389,8.389,0,0,1-1.615.578,7.046,7.046,0,0,1-1.641.181,2.326,2.326,0,0,1-1.736-.627,2.527,2.527,0,0,1-.662-1.744h6.194v-1.288a4.386,4.386,0,0,0-1.134-3.205,4.233,4.233,0,0,0-3.17-1.16,4.281,4.281,0,0,0-3.338,1.333,5.281,5.281,0,0,0-1.208,3.733,4.846,4.846,0,0,0,1.307,3.626,4.96,4.96,0,0,0,3.626,1.28Zm1.46-6.065h-3.678a2.443,2.443,0,0,1,.541-1.5,1.659,1.659,0,0,1,1.306-.529,1.719,1.719,0,0,1,1.323.529,2.18,2.18,0,0,1,.507,1.5h0Zm7.209,5.9V2241.21h-2.622v13.369Zm5.369,0V2241.21h-2.622v13.369Zm7.1.172a9.311,9.311,0,0,0,1.908-.168,6.8,6.8,0,0,0,1.469-.511h0v-2.029a8.455,8.455,0,0,1-1.615.578,7.053,7.053,0,0,1-1.641.18,2.327,2.327,0,0,1-1.736-.626,2.529,2.529,0,0,1-.662-1.745h6.2v-1.289a4.387,4.387,0,0,0-1.135-3.205,4.234,4.234,0,0,0-3.17-1.16,4.281,4.281,0,0,0-3.338,1.333,5.281,5.281,0,0,0-1.207,3.733,4.845,4.845,0,0,0,1.306,3.626,4.962,4.962,0,0,0,3.626,1.28Zm1.46-6.066h-3.677a2.442,2.442,0,0,1,.54-1.5,1.663,1.663,0,0,1,1.307-.529,1.718,1.718,0,0,1,1.322.529,2.182,2.182,0,0,1,.507,1.5h0Zm7.209,5.9v-4.517a4.427,4.427,0,0,1,.489-2.437,1.785,1.785,0,0,1,1.589-.735,1.35,1.35,0,0,1,1.178.519,2.686,2.686,0,0,1,.37,1.56h0v5.61h2.622v-6.265a3.633,3.633,0,0,0-.868-2.616,3.364,3.364,0,0,0-2.544-.906,4.118,4.118,0,0,0-1.747.355,2.767,2.767,0,0,0-1.207,1.053h-.149l-.352-1.229h-2v9.6h2.622Zm12.234.172a5.918,5.918,0,0,0,2.406-.438h0v-1.951a5.7,5.7,0,0,1-1.65.3,1.236,1.236,0,0,1-.83-.267,1.031,1.031,0,0,1-.314-.825h0v-4.632h2.69v-1.967h-2.69v-2.044H533.2l-.741,2.03-1.444.876v1.108h1.255v4.632a3.394,3.394,0,0,0,.716,2.37,3,3,0,0,0,2.29.795Z" fill="url(#linear-gradient)"/>
            <path id="Path_517" data-name="Path 517" d="M558.846,2107.1l-4.455,6.517a1.623,1.623,0,0,0-.314.857c0,.487.391.773,1.044.773h9.625c.652,0,1.043-.3,1.043-.785a1.579,1.579,0,0,0-.316-.85l-4.454-6.5a1.234,1.234,0,0,0-2.174,0Z" fill="#08a42a"/>
            <path id="Path_518" data-name="Path 518" d="M571.573,2115.388a3.914,3.914,0,0,0,2.429-.656,2.213,2.213,0,0,0,.853-1.866,1.8,1.8,0,0,0-.5-1.333,2.518,2.518,0,0,0-1.511-.627h0v-.044a2.344,2.344,0,0,0,1.306-.711,1.932,1.932,0,0,0,.464-1.326,1.785,1.785,0,0,0-.711-1.5,3.181,3.181,0,0,0-1.976-.544,4.384,4.384,0,0,0-2.675.848h0l.659.939a4.351,4.351,0,0,1,1.043-.525,3.125,3.125,0,0,1,.917-.134,1.574,1.574,0,0,1,1.031.291,1.026,1.026,0,0,1,.349.83c0,.924-.666,1.386-2.005,1.386H570.5v1.1h.726a3.387,3.387,0,0,1,1.674.316,1.065,1.065,0,0,1,.533.985,1.3,1.3,0,0,1-.481,1.116,2.423,2.423,0,0,1-1.455.362,4.868,4.868,0,0,1-1.145-.144,5.4,5.4,0,0,1-1.129-.407h0v1.2a5.469,5.469,0,0,0,2.35.453Zm7.338,0a2.655,2.655,0,0,0,2.007-.764,2.879,2.879,0,0,0,.736-2.082,2.7,2.7,0,0,0-.637-1.9,2.285,2.285,0,0,0-1.777-.7,2.434,2.434,0,0,0-1.145.254,1.724,1.724,0,0,0-.741.719h-.068a3.5,3.5,0,0,1,.733-2.314,2.645,2.645,0,0,1,2.022-.721,3.587,3.587,0,0,1,1.007.126h0v-1.123a4.966,4.966,0,0,0-1.066-.1q-4,0-4,4.915a5,5,0,0,0,.358,1.99,2.68,2.68,0,0,0,1.037,1.259,2.841,2.841,0,0,0,1.564.433Zm-.023-1.111a1.362,1.362,0,0,1-1.119-.552,2.13,2.13,0,0,1-.439-1.36,1.2,1.2,0,0,1,.212-.662,1.468,1.468,0,0,1,.578-.509,1.75,1.75,0,0,1,.8-.187,1.313,1.313,0,0,1,1.056.412,1.692,1.692,0,0,1,.353,1.134,1.936,1.936,0,0,1-.375,1.277A1.314,1.314,0,0,1,578.888,2114.277Z" fill="#08a42a"/>
          </g>
        </g>
        <g id="Group_718" data-name="Group 718">
          <path id="Path_519" data-name="Path 519" d="M413.3,2310.3H586.328v56.236H413.3Z" fill="#012e38" fill-rule="evenodd"/>
          <path id="Path_520" data-name="Path 520" d="M567.293,2325.006H539.61v27.683h27.683Z" fill="#fff" fill-rule="evenodd"/>
          <g id="Group_716" data-name="Group 716">
            <g id="Group_715" data-name="Group 715">
              <g id="Group_714" data-name="Group 714">
                <path id="Ellipse_8" data-name="Ellipse 8" d="M2.595-.5A3.095,3.095,0,1,1-.5,2.595,3.1,3.1,0,0,1,2.595-.5Zm0,5.19A2.095,2.095,0,1,0,.5,2.595,2.1,2.1,0,0,0,2.595,4.69Z" transform="translate(550.859 2331.928)" fill="#012e38"/>
                <path id="Path_521" data-name="Path 521" d="M559.145,2344.906h-1a4.691,4.691,0,1,0-9.382,0h-1a5.691,5.691,0,1,1,11.382,0Z" fill="#012e38"/>
              </g>
            </g>
          </g>
          <g id="Group_717" data-name="Group 717">
            <path id="Path_522" data-name="Path 522" d="M525.768,2333.605h-86.5a1.46,1.46,0,1,1,0-2.921h86.5a1.46,1.46,0,1,1,0,2.921Z" fill="#fff"/>
            <path id="Path_523" data-name="Path 523" d="M491.481,2345.2H439.255v-1.46h52.226Z" fill="#adeac0"/>
          </g>
        </g>
        <path id="Path_524" data-name="Path 524" d="M471.987,2032.008h53.8v5.117h-53.8Z" fill="#adeac0" fill-rule="evenodd"/>
      </g>
    </g>
    <path id="Path_525" data-name="Path 525" d="M665.748,2073.046h52.137v52.137H665.748Z" fill="#20bf55" fill-rule="evenodd"/>
    <g id="Group_725" data-name="Group 725">
      <g id="Group_724" data-name="Group 724">
        <g id="Group_721" data-name="Group 721">
          <path id="H" d="M672.7,2084.343h8.69v29.545H672.7Z" fill="#012e38" fill-rule="evenodd"/>
        </g>
        <g id="Group_722" data-name="Group 722">
          <path id="H-2" data-name="H" d="M687.472,2084.343h8.69v29.545h-8.69Z" fill="#012e38" fill-rule="evenodd"/>
        </g>
        <g id="Group_723" data-name="Group 723">
          <path id="H-3" data-name="H" d="M702.244,2084.343h8.69v29.545h-8.69Z" fill="#012e38" fill-rule="evenodd"/>
        </g>
      </g>
    </g>
    <path id="Path_526" data-name="Path 526" d="M672.7,2090.86h8.69v23.028H672.7Zm14.773,8.689h8.69v14.337h-8.69Z" fill="#fff" fill-rule="evenodd"/>
    <path id="Path_527" data-name="Path 527" d="M702.244,2095.205h8.69v18.681h-8.69Z" fill="#fff" fill-rule="evenodd"/>
    <path id="Path_528" data-name="Path 528" d="M729.586,2139.4H582.951a8.147,8.147,0,0,0-8.146,8.147v36.658a8.146,8.146,0,0,0,8.146,8.147H729.586a8.146,8.146,0,0,0,8.146-8.147v-36.658A8.147,8.147,0,0,0,729.586,2139.4Z" fill="#e1f4e6" fill-rule="evenodd"/>
    <g id="Group_726" data-name="Group 726">
      <path id="Path_529" data-name="Path 529" d="M721.44,2161.348H639.976a1.375,1.375,0,0,1,0-2.75H721.44a1.375,1.375,0,0,1,0,2.75Z" fill="#fff"/>
      <path id="Path_530" data-name="Path 530" d="M709.232,2172.956H660.057v-2.75h49.175Z" fill="#adeac0"/>
    </g>
    <g id="Group_727" data-name="Group 727">
      <path id="Path_531" data-name="Path 531" d="M592.4,2175.677l-2.612-.861c1.209-3.666,2.581-6.265,4.192-7.947a6.254,6.254,0,0,1,6.135-2.061,10.619,10.619,0,0,1,5.64,3.672c1.419,1.521,2.357,2.527,4.652,2.151,1.924-.315,3.637-4.011,5.148-7.271a38.567,38.567,0,0,1,3.13-5.879c1.508-2.127,3.136-3.16,4.977-3.16v2.75c-2.161,0-3.995,3.956-5.612,7.446a41.785,41.785,0,0,1-2.865,5.482c-1.335,1.993-2.753,3.088-4.335,3.347-3.747.613-5.532-1.3-7.107-2.99a7.993,7.993,0,0,0-4.237-2.865C596.791,2166.875,594.4,2169.627,592.4,2175.677Z" fill="#adeac0"/>
      <path id="Path_532" data-name="Path 532" d="M591.1,2176.622a1.376,1.376,0,0,1-1.306-1.806c1.209-3.666,2.581-6.265,4.192-7.947a6.254,6.254,0,0,1,6.135-2.061,10.619,10.619,0,0,1,5.64,3.672c1.419,1.521,2.356,2.526,4.652,2.151,1.928-.314,3.632-3.991,5.134-7.235.207-.448.422-.91.635-1.363a1.375,1.375,0,0,1,2.487,1.175c-.209.443-.422.9-.627,1.344a41.35,41.35,0,0,1-2.854,5.461c-1.331,1.984-2.748,3.074-4.332,3.332-3.746.612-5.531-1.3-7.106-2.99a7.993,7.993,0,0,0-4.237-2.865c-2.722-.615-5.113,2.137-7.109,8.187A1.376,1.376,0,0,1,591.1,2176.622Z" fill="#59dc7f"/>
    </g>
    <g id="Group_729" data-name="Group 729">
      <path id="Path_533" data-name="Path 533" d="M352.439,2250.193a13.042,13.042,0,0,0,7.939,3.421c16,1.593,36.584-13.908,63.42-57.723q12.09-5.106,13.437-8.49c1.484-3.718-11.7.74-12.729-1.081s3.133-4.592,3.752-6.411-8.487,4.2-9.456,5.352c-.945.7-36.659,23.688-52.966,33.257q-7.332-13.323-21.442-34.152l-25,17.026q24.261,40.449,31.834,47.8a10.992,10.992,0,0,0,1.2,1.007" fill="#ffbf99" fill-rule="evenodd"/>
      <path id="Path_534" data-name="Path 534" d="M325.724,2161.223l9.249,73.69q24.335-14.081,28.108-20.573c3.771-6.49-3.182-7.542-5.332-10.526s-2.88-17.182-8.733-26.242q-5.854-9.06-23.277-16.352" fill="#20bf55" fill-rule="evenodd"/>
      <path id="Path_535" data-name="Path 535" d="M351.035,2224.978q-3.6,1.408-4.716-.948t-.412-19.092L343.7,2229.7l7.34-4.74Z" fill="#06090e" fill-rule="evenodd" opacity="0.08" style="isolation: isolate"/>
      <path id="Path_536" data-name="Path 536" d="M340.478,2455.245l2.88,23.291v4.788H385.52v-4.788l-21.348-11.943-.41-10.19Z" fill="#011a1e" fill-rule="evenodd"/>
      <path id="Path_537" data-name="Path 537" d="M385.072,2478.285h-41.7l-.012.252v4.789H385.52v-4.789Z" fill="#e9eef7" fill-rule="evenodd"/>
      <path id="Path_538" data-name="Path 538" d="M339.859,2242.387l-38.806,8.141q-2.9,20.469-1.92,32.059c.8,9.456,20.714,29.55,20.714,78.709q0,32.087,16.927,96.068h27.155q3.9-70.667-.143-106.756t-23.927-108.219" fill="#012e38" fill-rule="evenodd"/>
      <path id="Path_539" data-name="Path 539" d="M259.706,2455.246l-2.879,23.291v4.789H298.99v-4.789l-17.507-11.943,2.469-11.147Z" fill="#011a1e" fill-rule="evenodd"/>
      <path id="Path_540" data-name="Path 540" d="M298.539,2478.285h-41.7l-.012.252v4.789H298.99v-4.789Z" fill="#e9eef7" fill-rule="evenodd"/>
      <path id="Path_541" data-name="Path 541" d="M308.364,2245.053l-37.715,1.293q-10.363,14.873-9.387,31.238c.977,16.367,15.255,32.689,6.7,81.1q-5.583,31.6-9.627,97.541H285.08q25.732-64.214,28.032-100.453,2.28-36.24-4.732-110.721" fill="#012e38" fill-rule="evenodd"/>
      <path id="Path_542" data-name="Path 542" d="M308.724,2248.919l-.311-3.318-2.749-.451-35.018,1.2a58.652,58.652,0,0,0-5.231,9.132q17.535,8.442,33.929,10.094a75.631,75.631,0,0,0,44.385-8.917l-1.478-5.5-24.794-4.07-8.736,1.832Z" fill="#06090e" fill-rule="evenodd"/>
      <path id="Path_543" data-name="Path 543" d="M342.959,2240.565c1.092,4.478,2.657,6.369,3.262,8.929,2.577,10.916-46.278,14.524-77.783.791-8.049-22.539-8.635-89.658,9.835-93.31,14.876-2.94,41.842-2.841,60.363,11.308,13.071,9.983,3.54,69.077,4.325,72.281" fill="#20bf55" fill-rule="evenodd"/>
      <path id="Path_544" data-name="Path 544" d="M273.274,2322.2l45.708,26.335,37.906-65.517-45.708-26.335Z" fill="#e9eef7" fill-rule="evenodd"/>
      <path id="Path_545" data-name="Path 545" d="M229.172,2241.869c1.219,16.145,9.186,31.378,58.18,50.356q7.883,2.6,12.569,2.666c4.685.069-4.058-9.005-4.043-11.083.006-.75,2.6-3.5,3.246-4.405a40.475,40.475,0,0,0-7.657.643c-1.416.514-31.9-38.593-32.82-41.128s16.363-26.749,17.734-41.85,3.071-23.58-17.744-20.617-30.687,49.258-29.466,65.418" fill="#ffbf99" fill-rule="evenodd"/>
      <path id="Path_546" data-name="Path 546" d="M238.227,2195.812c-2.281,5.125-7.747,6.138-7.747,12.768s24.355,19.169,38.436,19.169c15.834-2.844,28.465-42.554,30.117-58.962,1.214-12.06-5.95-14.782-24.78-11.4-20.452,3.673-31.879,29.1-36.028,38.426" fill="#20bf55" fill-rule="evenodd"/>
      <path id="Path_547" data-name="Path 547" d="M263.885,2225.665a147.836,147.836,0,0,0,2.054,15.063q2.61-14.219,5.415-17.63,2.965-3.606,17-17.46-10.937,9.543-14.545,10.549t4.622-22.909l-14.545,32.387Z" fill="#06090e" fill-rule="evenodd" opacity="0.08" style="isolation: isolate"/>
      <g id="Group_728" data-name="Group 728">
        <path id="Path_548" data-name="Path 548" d="M320.958,2159.272c-8.7,7.018-23.58,4.364-28.764-3.786a87.534,87.534,0,0,1,28.764,3.786" fill="#ffbf99" fill-rule="evenodd"/>
        <path id="Path_549" data-name="Path 549" d="M299.677,2137.917l-3.922,18.776L314,2162.242l-1.351-16.925Z" fill="#ffbf99" fill-rule="evenodd"/>
      </g>
      <path id="Path_550" data-name="Path 550" d="M313.109,2151.1l-10.039-6.877-.266.573,10.716,11.454Z" fill="#0c121b" fill-rule="evenodd"/>
      <path id="Path_551" data-name="Path 551" d="M294.244,2128.554a17.127,17.127,0,0,0,1.04,7.578c4.5,8.816,17.818,18.029,23.449,17.975s9.332-7.166,9.1-12.3c-.207-4.636-.592-3.214,1.013-11.549s-6.634-16.578-15.853-17.384a17.288,17.288,0,0,0-18.751,15.676" fill="#ffbf99" fill-rule="evenodd"/>
      <path id="Path_552" data-name="Path 552" d="M320.009,2145.922c2.079.181,3.863-.8,3.91-1.307s-1.666-.362-3.747-.543-3.739-.626-3.783-.115,1.54,1.783,3.62,1.965" fill="#fff" fill-rule="evenodd"/>
      <path id="Path_553" data-name="Path 553" d="M316.183,2129.431c1.7.391,2.272.933,2.362.542s-.326-1.567-2.033-1.958-4.136.5-4.228.9,2.193.129,3.9.522m9.838.859c1.747-.089,3.95.563,3.928.148s-2.259-1.7-4.007-1.629-2.364,1.174-2.34,1.576.672-.034,2.42-.125" fill="#0c121b" fill-rule="evenodd"/>
      <path id="Path_554" data-name="Path 554" d="M321.127,2141.9a.243.243,0,0,0,.311.139c-.1.037.512-.193.656-.252l.581-.243c1.422-.652,1.536-1.493.175-3.11-1.141-1.351-1.114-3.289.109-5.845a.24.24,0,1,0-.432-.207c-1.3,2.71-1.324,4.843-.045,6.36,1.185,1.388,1.105,1.854-.009,2.365l-.554.231-.651.249a.24.24,0,0,0-.138.308" fill="#b07451" fill-rule="evenodd"/>
      <path id="Path_555" data-name="Path 555" d="M328.08,2133.527c3.574-1.082,5-5.61,5.347-9.613s3.584-4.488,2.928-9.411-5.537-5.71-8.613-5.184-4.607.77-10.854-.271-9.509,3.338-10.863,3.22-7.969,1.115-11.085,8.285q-3.117,7.17.341,15.576,6.949-.9,11.973-11.946c8.887.015,14.674-1.718,17.315-5.2,3.7,3.306,4.858,8.15,3.511,14.536" fill="#0c121b" fill-rule="evenodd"/>
      <path id="Path_556" data-name="Path 556" d="M298.673,2138.474a4.108,4.108,0,1,0-3.771-4.453,4.129,4.129,0,0,0,3.771,4.453m9.775-20.633q-.473,5.407-2.173,8.11a.239.239,0,0,0,.074.328.243.243,0,0,0,.332-.074q1.764-2.814,2.244-8.324a.23.23,0,0,0-.218-.259.24.24,0,0,0-.26.218m18.282-3.807c-.879,3.17-2.114,5.273-3.7,6.328a.24.24,0,1,0,.268.4c1.685-1.129,2.962-3.333,3.881-6.6a.238.238,0,0,0-.164-.292h0a.243.243,0,0,0-.3.166" fill="#ffbf99" fill-rule="evenodd"/>
      <path id="Path_557" data-name="Path 557" d="M315.113,2134.766a1.1,1.1,0,1,0-1-1.186,1.1,1.1,0,0,0,1,1.186m10.443.912a1.1,1.1,0,1,0-1-1.186h0a1.1,1.1,0,0,0,1,1.185" fill="#0c121b" fill-rule="evenodd"/>
    </g>
    <path id="Path_558" data-name="Path 558" d="M185.875,2359.354H266.85a5.132,5.132,0,0,1,0,10.265H185.875a5.132,5.132,0,0,1,0-10.265Z" fill="#e1f4e6" fill-rule="evenodd"/>
    <path id="Path_559" data-name="Path 559" d="M220.66,2369.619h11.4l-2.281,130.016h-6.843Z" fill="#adeac0" fill-rule="evenodd"/>
    <g id="Group_730" data-name="Group 730">
      <path id="Path_560" data-name="Path 560" d="M180.743,2476.81h91.239v5.7H180.743Z" fill="#e1f4e6" fill-rule="evenodd"/>
      <path id="Path_561" data-name="Path 561" d="M260.577,2369.619l17.108,130.016h-5.7l-22.81-130.016Zm-57.024,0-22.81,130.016h-5.7l17.108-130.016Z" fill="#e1f4e6" fill-rule="evenodd"/>
    </g>
    <g id="Group_731" data-name="Group 731">
      <path id="Path_562" data-name="Path 562" d="M203.553,2369.619l-1,5.7H191.4l.751-5.7Zm57.024,0,.751,5.7H250.172l-1-5.7Zm-28.512,0-.119,6.843H220.778l-.118-6.843ZM211.1,2355.155a18.011,18.011,0,0,0,8.475-14.678,18,18,0,0,0-8.475,14.678Z" fill="#adeac0" fill-rule="evenodd"/>
      <path id="Path_563" data-name="Path 563" d="M211.081,2351.285a18.017,18.017,0,0,0,4.388-16.37,18.01,18.01,0,0,0-4.388,16.37Z" fill="#adeac0" fill-rule="evenodd"/>
      <path id="Path_564" data-name="Path 564" d="M212.839,2351.285a18.013,18.013,0,0,1-4.387-16.37,18.013,18.013,0,0,1,4.387,16.37Z" fill="#adeac0" fill-rule="evenodd"/>
      <path id="Path_565" data-name="Path 565" d="M212.839,2355.155a18.011,18.011,0,0,1-8.475-14.678,18.005,18.005,0,0,1,8.475,14.678Z" fill="#adeac0" fill-rule="evenodd"/>
    </g>
    <path id="Path_566" data-name="Path 566" d="M205.423,2349.7H218.8l-1.759,9.854h-9.858Zm22.536-15.042h21.9l-3.129,25.025H231.087Z" fill="#e1f4e6" fill-rule="evenodd"/>
    <path id="Path_567" data-name="Path 567" d="M228.741,2338.565h20.334l-.783,10.166H229.523Zm-.782-7.039h21.9l.782,3.129H227.177Z" fill="#adeac0" fill-rule="evenodd"/>
    <path id="Path_568" data-name="Path 568" d="M229.523,2328.4h18.769l.783,3.128H228.741Z" fill="#e1f4e6" fill-rule="evenodd"/>
    <path id="Path_569" data-name="Path 569" d="M729.038,2308.684l29.155,5.451q1.163,47.02-28.705,38.234t-69.995-21.891q-14.826,6.027-18.852,6.025c-4.029,0,4.4-8.931,15.779-14.293q11.383-5.364,67.629,2.545l4.987-16.071Z" fill="#dd9266" fill-rule="evenodd"/>
    <path id="Path_570" data-name="Path 570" d="M750.743,2255.189q-7.479,2.115-12.657,9.906c-5.176,7.791-11.375,36.521-12.461,37.947s-2.281,2.963-2.281,4.918q0,1.954,21.366,7.979l6.033-60.746Z" fill="#20bf55" fill-rule="evenodd"/>
    <path id="Path_571" data-name="Path 571" d="M738.962,2314.272l-12.393-4.185q8.39.8,9.49-.279,1.266-1.239,1.125-24.246l1.775,28.71Z" fill="#06090e" fill-rule="evenodd" opacity="0.548" style="isolation: isolate"/>
    <path id="Path_572" data-name="Path 572" d="M720.477,2468.194l-21.992,1.1,2.331,9.613-20.163,11.257v4.517h39.825v-26.483Z" fill="#011a1e" fill-rule="evenodd"/>
    <path id="Path_573" data-name="Path 573" d="M681.074,2489.939l-.424.237v4.518h39.825v-4.518l-.01-.237Z" fill="#e9eef7" fill-rule="evenodd"/>
    <path id="Path_574" data-name="Path 574" d="M726.56,2377.627c-1.141,32.829-1.141,43.672-4.864,93.112l-23.514-.452q-18.878-82.119,6.446-103.719c11.705-7.624,21.941-7.624,21.933,11.059" fill="#012e38" fill-rule="evenodd"/>
    <path id="Path_575" data-name="Path 575" d="M726.4,2382.268l-.122,3.67-11.548-.486q-4.221,0-19.866,20.47l11.123-32.4,20.411,8.753Z" fill="#06090e" fill-rule="evenodd"/>
    <path id="Path_576" data-name="Path 576" d="M656.509,2457.694l-19.663-7.862-4.295,9.272-21.388,2.521-1.844,4.127L645.7,2481.9l1.842-4.127Z" fill="#011a1e" fill-rule="evenodd"/>
    <path id="Path_577" data-name="Path 577" d="M611.641,2461.579l-.483.045-1.842,4.126L645.7,2481.9l1.844-4.126.086-.222Z" fill="#e9eef7" fill-rule="evenodd"/>
    <path id="Path_578" data-name="Path 578" d="M808,2341.114q13.809,36.1-12.649,46.076c-26.458,9.971-56.935,0-85.015-7.184-9.12,4.019-2.88,22.022-53.76,80.3l-21.492-7.83q48.04-111.366,60.895-115.974T808,2341.1" fill="#012e38" fill-rule="evenodd"/>
    <path id="Path_579" data-name="Path 579" d="M739.722,2327.9c.948-2.965-8.547-60.709,4.443-69.251,18.387-12.1,39.154-8.939,52.978-5.192,17.167,4.651,21.649,72.048,15.609,107.533-25.573,4.384-49.579-22.716-76.68-24.884.741-2.37,2.34-4.048,3.663-8.191" fill="#20bf55" fill-rule="evenodd"/>
    <path id="Path_580" data-name="Path 580" d="M814.93,2339.944a185.312,185.312,0,0,1-2.192,21.047c-7.095,1.218-14.071.01-21.022-2.414q6.274-2.928,5.414-5.777-1.563-5.163-30-14.438,31.533-.142,47.806,1.585" fill="#06090e" fill-rule="evenodd" opacity="0.548" style="isolation: isolate"/>
    <path id="Path_581" data-name="Path 581" d="M736.384,2392.381h59.6q28.4-20.4,25.8-66.874h-4.52q-7.492,28.794-27.5,33.437c-20.005,4.643-34.588,2.684-44.275,9.28q-9.687,6.594-9.112,24.142" fill="#adeac0" fill-rule="evenodd"/>
    <path id="Path_582" data-name="Path 582" d="M788.272,2392.381h6.346L819.091,2495.4h-3.626Z" fill="#e1f4e6" fill-rule="evenodd"/>
    <path id="Path_583" data-name="Path 583" d="M788.272,2392.381h6.346l1.5,6.325h-6.176Z" fill="#adeac0" fill-rule="evenodd"/>
    <path id="Path_584" data-name="Path 584" d="M748.389,2392.381h-6.345L717.571,2495.4H721.2Z" fill="#e1f4e6" fill-rule="evenodd"/>
    <path id="Path_585" data-name="Path 585" d="M746.72,2398.709h-6.176l1.5-6.325h6.346Z" fill="#adeac0" fill-rule="evenodd"/>
    <path id="Path_586" data-name="Path 586" d="M828.643,2288.634c2.319,5.15,6.724,7.2,5.24,13.194s-24.762,12.92-42.235,15.765c-14.663-3.972-17.778-40.307-17.978-55.869-.148-11.438,6.819-13.409,24.258-8.683,18.944,5.132,26.779,26.851,30.716,35.593" fill="#20bf55" fill-rule="evenodd"/>
    <path id="Path_587" data-name="Path 587" d="M806.138,2324.755,792.2,2291.417q9.153,25.919,7.117,28.419t-16.807,2.207l23.632,2.71Z" fill="#06090e" fill-rule="evenodd" opacity="0.548" style="isolation: isolate"/>
    <path id="Path_588" data-name="Path 588" d="M802.059,2315.011l29.155-9.911q10.227,56.058-19.64,47.271t-69.995-21.892a60.9,60.9,0,0,1-9.37,5.131c-4.762,1.688-7.743.895-9.482.895-4.029,0,4.394-8.932,15.778-14.294q11.382-5.362,67.63,2.545l-4.077-9.743Z" fill="#dd9266" fill-rule="evenodd"/>
    <path id="Path_589" data-name="Path 589" d="M618.772,2347.194H756.549v-7.243H618.772Z" fill="#e1f4e6" fill-rule="evenodd"/>
    <path id="Path_590" data-name="Path 590" d="M646.871,2347.194h-6.346L616.052,2495.4h3.626Z" fill="#e1f4e6" fill-rule="evenodd"/>
    <path id="Path_591" data-name="Path 591" d="M645.708,2353.522H639.48l1.044-6.325h6.345Z" fill="#adeac0" fill-rule="evenodd"/>
    <path id="Path_592" data-name="Path 592" d="M733.887,2347.194h6.345L764.706,2495.4H761.08Z" fill="#e1f4e6" fill-rule="evenodd"/>
    <path id="Path_593" data-name="Path 593" d="M733.887,2347.209h6.345l1.045,6.324h-6.229Zm-10.664-11.7-7.757-49.5a4.527,4.527,0,0,0-4.478-3.821H632.994a3.626,3.626,0,0,0-3.583,4.166v.008l8.41,53.665H739.341a4.517,4.517,0,0,0,4.532-4.5v-.014H723.226Z" fill="#adeac0" fill-rule="evenodd"/>
    <g id="Group_732" data-name="Group 732">
      <path id="Path_594" data-name="Path 594" d="M753.791,2253.671c7.979,6.9,22.029,4.245,27.194-3.274-7.991-1.273-17.152-.38-27.194,3.274" fill="#dd9266" fill-rule="evenodd"/>
      <path id="Path_595" data-name="Path 595" d="M773.665,2233.619l3.7,17.717-17.245,5.238L761.4,2240.6Z" fill="#dd9266" fill-rule="evenodd"/>
    </g>
    <path id="Path_596" data-name="Path 596" d="M760.976,2246.078l-.388,4.862,10.121-10.81-.252-.542Z" fill="#0c121b" fill-rule="evenodd"/>
    <path id="Path_597" data-name="Path 597" d="M778.8,2224.784a16.323,16.323,0,0,0-17.711-14.793c-8.709.76-16.491,8.542-14.96,16.406s1.152,6.521.957,10.9c-.218,4.843,3.278,11.553,8.6,11.6s17.9-8.642,22.15-16.962a16.169,16.169,0,0,0,.982-7.154" fill="#dd9266" fill-rule="evenodd"/>
    <g id="Group_733" data-name="Group 733">
      <path id="Path_598" data-name="Path 598" d="M746.738,2229.276c-2.126-1.032-4.3-2.074-4.3-4.469,0-1.65,1.359-3.033,1.359-3.939,0-2.055-1.9-3.432-1.359-5.307.618-2.144,2.544-2.133,3.292-3.289.869-1.339.617-2.928,2.177-4.674s4.541-.844,6.182-1.638c2.795-1.353,3.17-3.007,6.559-2.466,3.19.506,3.478,1.993,5.373,2.731s5.269-.69,7.3.992c1.969,1.625.927,3.226,2.515,4.8,1.442,1.431,3.119,2.582,3.646,3.795.852,1.958-.527,3.066-.537,5.513,0,.622,1.673,1.919,1.673,3.914q0,2.178-2.909,6.5-7.781,1.023-11.692-13.515-11.931-.534-19.021,1.811a18.5,18.5,0,0,0-.267,9.246m11.34-3.666c-1.61.37-2.148.881-2.231.511s.309-1.478,1.92-1.849,3.907.477,3.993.844-2.07.123-3.682.492" fill="#47220c" fill-rule="evenodd"/>
      <path id="Path_599" data-name="Path 599" d="M748.782,2226.42c1.651.085,2.266.5,2.285.119s-.563-1.4-2.213-1.487-3.765,1.145-3.784,1.525,2.059-.237,3.71-.152" fill="#47220c" fill-rule="evenodd"/>
    </g>
    <path id="Path_600" data-name="Path 600" d="M754.459,2241.173c-1.964.17-3.65-.753-3.693-1.234s1.575-.341,3.54-.513,3.532-.589,3.573-.108-1.456,1.684-3.421,1.855" fill="#fff" fill-rule="evenodd"/>
    <path id="Path_601" data-name="Path 601" d="M753.188,2237.526a.245.245,0,0,1-.08-.015l-.216-.081c-1.018-.385-1.822-.687-1.989-1.333-.131-.5.139-1.111.874-1.98,1.075-1.274,1.041-3.132-.1-5.518a.227.227,0,0,1,.409-.2c1.229,2.563,1.241,4.581.041,6-.613.741-.868,1.242-.78,1.575.109.422.814.689,1.71,1.028l.218.083a.22.22,0,0,1,.131.29.227.227,0,0,1-.212.145" fill="#9b5d39" fill-rule="evenodd"/>
    <path id="Path_602" data-name="Path 602" d="M774.613,2234.145a3.878,3.878,0,1,1,3.561-4.2,3.9,3.9,0,0,1-3.561,4.2" fill="#dd9266" fill-rule="evenodd"/>
    <g id="Group_736" data-name="Group 736">
      <g id="Group_734" data-name="Group 734">
        <path id="I" d="M758.9,2228.59a1.032,1.032,0,1,0,1.122.939,1.037,1.037,0,0,0-1.122-.939" fill="#47220c" fill-rule="evenodd"/>
      </g>
      <g id="Group_735" data-name="Group 735">
        <path id="I-2" data-name="I" d="M749.038,2229.451a1.032,1.032,0,1,0,1.123.939,1.037,1.037,0,0,0-1.123-.939" fill="#47220c" fill-rule="evenodd"/>
      </g>
    </g>
  </g>
</svg>
