<?xml version="1.0" encoding="UTF-8"?><svg id="Layer_1" xmlns="http://www.w3.org/2000/svg" xmlns:xlink="http://www.w3.org/1999/xlink" viewBox="0 0 58.22 51.91"><defs><style>.cls-1{fill:url(#linear-gradient);}</style><linearGradient id="linear-gradient" x1="-630.41" y1="560.58" x2="-629.41" y2="560.58" gradientTransform="translate(36700.82 29122.93) scale(58.22 -51.91)" gradientUnits="userSpaceOnUse"><stop offset="0" stop-color="#20bf55"/><stop offset="1" stop-color="#01baef"/></linearGradient></defs><path id="Path_617" class="cls-1" d="M0,26.29c.38-1.28,1.46-2.22,2.78-2.43,3.24-.84,6.45-1.79,9.68-2.66,.39-.06,.69-.38,.72-.78,.49-2.39,.99-4.78,1.5-7.16,.04-.16,.09-.32,.15-.51,2.1,.44,4.17,.88,6.24,1.32,3.09,.66,6.18,1.32,9.27,1.96,.3,.05,.6,.03,.89-.06,2.18-.57,4.34-1.21,6.52-1.75,1.33-.31,2.69,.43,3.15,1.72,.24,.64,.43,1.29,.57,1.96,.04,.34,.31,.61,.65,.64,4.37,.91,8.74,1.83,13.11,2.76,.22,.05,.44,.1,.71,.17l-1,4.73c-.49,2.31-.97,4.63-1.48,6.94-.21,1.54-1.63,2.62-3.18,2.41-.16-.02-.31-.06-.46-.1-1.2-.25-2.4-.5-3.69-.77,.35,1.27,.67,2.45,1,3.62,.4,1.11,.05,2.34-.86,3.08-.42,.32-.9,.55-1.41,.68-9.05,2.53-18.11,5.05-27.17,7.55-2.52,.7-5.03,1.39-7.55,2.09-1.47,.61-3.15-.08-3.76-1.54-.09-.21-.15-.43-.19-.66C4.15,42.14,2.12,34.79,.09,27.44c-.02-.05-.05-.1-.09-.14v-1.02Zm4.92,9.92c.05,.22,.09,.41,.14,.58,1.11,4.01,2.23,8.02,3.34,12.03,.21,.77,.36,.86,1.13,.65,11.54-3.2,23.08-6.4,34.61-9.61,.86-.24,.92-.36,.69-1.2-.78-2.83-1.57-5.65-2.35-8.48-.37-1.34-.75-2.69-1.14-4.08L4.92,36.21Zm35.06-15.04c-.38-1.37-.73-2.66-1.09-3.95-.22-.8-.36-.88-1.17-.65-6.1,1.69-12.21,3.38-18.31,5.07-5.45,1.51-10.89,3.02-16.34,4.54-.76,.21-.85,.38-.64,1.14,.24,.88,.49,1.75,.74,2.62,.13,.44,.25,.89,.38,1.34l36.44-10.11Zm5.13,6.22c-.04,.94,.27,1.35,1.02,1.52,1.29,.29,2.58,.56,3.88,.82,.6,.2,1.25-.14,1.45-.74,.02-.06,.03-.12,.04-.19,.31-1.34,.59-2.69,.85-4.05,.17-.56-.15-1.14-.71-1.31-.02,0-.05-.01-.07-.02-1.45-.35-2.91-.65-4.37-.92-.52-.12-1.04,.2-1.16,.72,0,.01,0,.03,0,.04-.35,1.45-.65,2.91-.92,4.12Zm12.3-12.13c.06-.09,.08-.1,.08-.12,.22-1.4,.44-2.81,.66-4.21,.33-1.5-.63-2.99-2.13-3.32-.02,0-.04,0-.06-.01-.75-.19-1.51-.34-2.27-.5C42.63,4.77,31.56,2.43,20.49,.1c-1.5-.4-3.04,.49-3.44,1.99-.04,.15-.07,.31-.08,.47l-.09,.56-.53,3.46L57.41,15.27ZM16.02,44.19c-.4-1.44-.77-2.88-1.22-4.3-.17-.57-.78-.89-1.35-.71-.03,0-.06,.02-.08,.03-1.32,.35-2.63,.71-3.93,1.09-.62,.09-1.04,.67-.95,1.28,0,.06,.02,.12,.04,.18,.34,1.39,.73,2.78,1.15,4.15,.13,.56,.68,.91,1.24,.79,.03,0,.06-.01,.09-.02,1.41-.35,2.81-.74,4.21-1.15,.48-.11,.81-.54,.82-1.03,0-.1,0-.2-.02-.3Z"/></svg>