<?xml version="1.0" encoding="UTF-8"?><svg id="Layer_1" xmlns="http://www.w3.org/2000/svg" xmlns:xlink="http://www.w3.org/1999/xlink" viewBox="0 0 51.85 51.85"><defs><style>.cls-1{fill:url(#linear-gradient);}</style><linearGradient id="linear-gradient" x1="-633.06" y1="560.42" x2="-632.06" y2="560.42" gradientTransform="translate(32821.21 29083.34) scale(51.85 -51.85)" gradientUnits="userSpaceOnUse"><stop offset="0" stop-color="#20bf55"/><stop offset="1" stop-color="#01baef"/></linearGradient></defs><path id="Path_621" class="cls-1" d="M38.08,51.85h-2.33c-.26-.04-.53-.09-.79-.12-8.2-1.06-14-8.56-12.94-16.77s8.56-14,16.77-12.94,14,8.56,12.94,16.77c-.78,6.06-5.16,11.04-11.07,12.58-.84,.21-1.71,.33-2.57,.49Zm-1.18-15.94c1.15,0,2.29,.02,3.44,0,.84,.06,1.56-.57,1.62-1.41,.06-.84-.57-1.56-1.41-1.62-.08,0-.16,0-.24,0-.76,0-1.52,0-2.28,0-1.54,0-3.07-.01-4.6,0-.83-.04-1.53,.59-1.58,1.42,0,.16,0,.32,.05,.48,.19,.71,.87,1.19,1.6,1.13,1.13,.01,2.26,0,3.39,0h0Zm.01,2.03c-1.13,0-2.26,0-3.39,0-.83-.08-1.58,.52-1.66,1.36-.08,.83,.52,1.58,1.36,1.66,.08,0,.17,0,.25,0,2.29,.02,4.59,.02,6.88,0,.83,.06,1.55-.56,1.61-1.39,0-.04,0-.08,0-.12,0-.84-.69-1.52-1.53-1.52-.05,0-.09,0-.14,0-1.13,0-2.26,0-3.39,0ZM0,3.96c.07-.24,.13-.48,.2-.72C.75,1.38,2.43,.08,4.37,.03,10.52,0,16.69,.01,22.85,.01c.07,0,.14,.01,.21,.03V23.09H0V3.96ZM10.03,13.07c0,.71,0,1.35,0,1.99-.02,.59,.31,1.14,.85,1.39,.74,.38,1.64,.08,2.02-.66,.11-.22,.17-.46,.16-.71,.02-.66,0-1.33,0-2.01h1.9c.84,.06,1.57-.57,1.63-1.41,.06-.84-.57-1.57-1.41-1.63-.08,0-.16,0-.23,0h-1.83s-.04-.09-.05-.14c0-.58,0-1.15-.01-1.72,.08-.84-.53-1.59-1.37-1.67s-1.59,.53-1.67,1.37c0,.09,0,.19,0,.28v1.89c-.68,0-1.3,0-1.93,0-.84-.06-1.56,.58-1.62,1.42-.06,.84,.58,1.56,1.42,1.62,.07,0,.14,0,.21,0,.63,0,1.26,0,1.93,0h0ZM0,26.13H22.5c-.1,.17-.17,.29-.25,.41-4.62,6.51-4.39,15.28,.56,21.54,.19,.36,.33,.74,.42,1.14H4.88c-2.33,.16-4.4-1.46-4.8-3.76-.02-.06-.04-.12-.07-.18V26.13Zm11.57,13.62c.5,.53,.92,1.01,1.37,1.46,.36,.42,.93,.6,1.47,.47,.81-.17,1.33-.97,1.16-1.78-.06-.29-.21-.56-.43-.77-.46-.49-.98-.92-1.55-1.44,.55-.52,1.02-.93,1.46-1.38,.64-.54,.73-1.5,.19-2.14-.54-.64-1.5-.73-2.14-.19-.07,.06-.14,.13-.2,.2-.44,.44-.85,.9-1.34,1.44-.51-.55-.92-1.01-1.37-1.45-.54-.64-1.5-.73-2.14-.19-.64,.54-.73,1.5-.19,2.14,.06,.07,.13,.14,.2,.2,.44,.44,.9,.85,1.44,1.34-.56,.52-1.04,.95-1.49,1.4-.63,.56-.69,1.52-.13,2.15,.56,.63,1.52,.69,2.15,.13,.05-.04,.1-.09,.14-.14,.45-.44,.87-.9,1.41-1.45h0Zm14.58-17.24V0h18.23c2.51-.16,4.68,1.76,4.83,4.27,.01,.18,.01,.36,0,.54,0,5.91,0,11.81,0,17.72v.51c-.45,.12-.93,0-1.28-.3-6.23-4.87-14.91-5.08-21.37-.52-.12,.09-.24,.17-.42,.28h0Zm11.52-9.44h3.34c.84,.11,1.61-.48,1.71-1.32,.11-.84-.48-1.61-1.32-1.71-.12-.02-.25-.02-.37,0-2.24,0-4.48,0-6.72,0-.84-.1-1.59,.51-1.69,1.34-.1,.84,.51,1.59,1.34,1.69,.11,.01,.21,.01,.32,0,1.13,0,2.26,0,3.39,0h0Z"/></svg>