<?xml version="1.0" encoding="UTF-8"?><svg id="Layer_1" xmlns="http://www.w3.org/2000/svg" xmlns:xlink="http://www.w3.org/1999/xlink" viewBox="0 0 48.56 51.83"><defs><style>.cls-1{fill:url(#linear-gradient);}</style><linearGradient id="linear-gradient" x1="-635.01" y1="560.49" x2="-634.01" y2="560.49" gradientTransform="translate(30835.83 29077.7) scale(48.56 -51.83)" gradientUnits="userSpaceOnUse"><stop offset="0" stop-color="#20bf55"/><stop offset="1" stop-color="#01baef"/></linearGradient></defs><path id="Path_618" class="cls-1" d="M0,18.16V8.04C0,7.18,.19,6.96,1.04,6.84,8.9,5.68,16.55,3.41,23.76,.1c.33-.13,.69-.13,1.02,0,5.8,2.67,11.89,4.66,18.14,5.94,1.55,.32,3.12,.54,4.68,.82,.67,.11,.91,.38,.91,1.04,0,6.31,.12,12.63-.04,18.94-.21,8.53-4.04,15.15-11.13,19.88-3.81,2.53-8.09,4.26-12.59,5.09-.53,.07-1.07,.03-1.59-.11-5.38-1.08-10.41-3.48-14.65-6.97C3.8,40.88,.82,35.31,.24,29.25-.01,26.75,.07,24.21,.02,21.68c-.03-1.17,0-2.35,0-3.52Zm24.25,23.34c8.61,0,15.59-6.97,15.6-15.58,0-8.61-6.97-15.59-15.58-15.6-8.6,0-15.58,6.96-15.6,15.56,0,8.61,6.97,15.6,15.58,15.62Zm7.64-12.13c.71,0,1.03-.32,1.03-1.02,0-1.64,0-3.29,0-4.92,.06-.48-.27-.91-.75-.98-.07,0-.14,0-.22,0-.61-.01-1.22,0-1.84,0h-2.39c0-1.44,0-2.81,0-4.18,0-.68-.32-1.01-.98-1.02-1.66-.01-3.32-.01-4.98,0-.48-.06-.91,.28-.96,.76,0,.07,0,.15,0,.22-.01,1.22,0,2.45,0,3.68v.54h-4.08c-.82,0-1.12,.29-1.12,1.1,0,1.51,0,3.03,0,4.54,0,1.04,.24,1.28,1.27,1.28h3.93v4.1c0,.81,.3,1.1,1.12,1.1,1.57,0,3.14,0,4.71,0,.81,0,1.1-.3,1.1-1.11v-4.08c1.42,0,2.79,0,4.16,0h0Z"/></svg>