<?xml version="1.0" encoding="UTF-8"?><svg id="Layer_1" xmlns="http://www.w3.org/2000/svg" xmlns:xlink="http://www.w3.org/1999/xlink" viewBox="0 0 51.76 51.84"><defs><style>.cls-1{fill:url(#linear-gradient);}</style><linearGradient id="linear-gradient" x1="-633.4" y1="560.49" x2="-632.4" y2="560.49" gradientTransform="translate(32786.64 29080.17) scale(51.76 -51.84)" gradientUnits="userSpaceOnUse"><stop offset="0" stop-color="#20bf55"/><stop offset="1" stop-color="#01baef"/></linearGradient></defs><path id="Path_620" class="cls-1" d="M44.46,0c.79,.35,1.26,1.19,1.12,2.04,.07,1.94-.07,3.88-.41,5.79-1.37,5.57-6.08,9.68-11.79,10.29-1.74,.15-3.5,.08-5.25,.11h-.73v6.3c.83,.09,1.64,.16,2.46,.28,1.68,.19,3.3,.7,4.78,1.52,.16,.09,.31,.2,.46,.31,1.34,.79,1.78,2.52,.98,3.86-.24,.4-.57,.73-.97,.97-1.32,.92-2.84,1.5-4.43,1.71-3.72,.72-7.55,.59-11.21-.38-1.17-.27-2.25-.81-3.17-1.58-1.19-.93-1.4-2.64-.48-3.83,.14-.18,.31-.35,.49-.49,1.13-.92,2.48-1.53,3.92-1.76,1.22-.25,2.46-.36,3.69-.54,.13-.02,.26-.04,.41-.06v-6.3h-.54c-1.83-.03-3.68,.05-5.5-.11-6.04-.64-10.91-5.24-11.9-11.23-.18-1.81-.26-3.63-.22-5.45-.01-.73,.51-1.12,1.1-1.43h.81c.61,.54,1.25,1.05,1.83,1.62,.9,.91,2.12,1.43,3.4,1.42,.52,0,1.04,.03,1.56,.09,4.51,.34,8.54,2.94,10.7,6.91,.09,.15,.17,.3,.27,.47,.04-.04,.08-.08,.12-.13,2.38-4.65,7.23-7.51,12.46-7.35,1.31,.02,2.58-.52,3.47-1.48,.54-.56,1.17-1.04,1.76-1.56h.81ZM0,32.6c.24,.83,.79,1.54,1.52,2,.65,.41,1.35,.75,2.07,1.01,2.7,.85,5.54,1.19,8.36,1,.08-.01,.17-.03,.25-.06v-8.92c-.08-.03-.17-.05-.25-.06-2.89-.2-5.8,.17-8.55,1.07-1.51,.54-2.86,1.28-3.41,2.95v1.01Zm27.39,19.24c.15-.03,.29-.06,.44-.08,1.21-.18,2.44-.3,3.64-.55,1.44-.24,2.79-.83,3.93-1.73,.9-.76,1.3-1.95,1.04-3.09-3.29,1.96-6.89,2.42-10.57,2.42s-7.31-.46-10.58-2.43c-.23,1.49,.52,2.95,1.85,3.64,1.27,.73,2.67,1.21,4.12,1.42,.99,.17,2,.27,2.99,.41h3.13ZM0,44.75c.36,1.07,1.14,1.93,2.16,2.4,.46,.24,.94,.45,1.43,.62,2.69,.83,5.5,1.17,8.31,.99,.1-.01,.2-.03,.3-.06v-3.01c-.12,0-.22,0-.32,0-2.82,.21-5.66-.09-8.38-.88-1.2-.43-2.37-.93-3.51-1.49v1.42Zm0-6.08c.24,.82,.76,1.52,1.48,1.97,.67,.42,1.38,.77,2.12,1.04,2.68,.85,5.5,1.19,8.31,1.01,.1-.01,.2-.03,.3-.06v-3.01c-.12,0-.22,0-.32,0-2.49,.15-4.98-.05-7.41-.6-1.57-.37-3.08-.96-4.47-1.77v1.42Zm39.82-2.06c2.59,.15,5.19-.12,7.69-.79,1.22-.29,2.35-.87,3.28-1.7,1.12-.93,1.27-2.58,.35-3.7-.1-.13-.22-.24-.35-.35-.57-.5-1.21-.91-1.9-1.21-2.26-.89-4.67-1.34-7.09-1.33-.75-.02-1.51,0-2.27,0v9.03c.1,.02,.19,.03,.29,.04h0Zm-22.88,1.14c.79,.47,1.64,.84,2.53,1.1,3.85,1.04,7.9,1.13,11.79,.27,1.49-.24,2.89-.85,4.08-1.77,.92-.76,1.34-1.97,1.09-3.14-3.28,1.96-6.88,2.42-10.56,2.42s-7.29-.45-10.57-2.42c-.33,1.42,.34,2.88,1.64,3.54h0Zm-.04,6.04c.8,.49,1.67,.87,2.57,1.13,3.85,1.04,7.9,1.13,11.79,.27,1.47-.24,2.85-.83,4.04-1.73,.95-.75,1.39-1.99,1.13-3.17-3.28,1.96-6.87,2.42-10.56,2.42s-7.29-.45-10.58-2.43c-.33,1.4,.33,2.85,1.61,3.51h0Zm22.64-4.16v3.01c.12,.02,.25,.04,.37,.04,1.83-.1,3.66-.13,5.48-.33,1.61-.16,3.17-.67,4.56-1.51,1.32-.66,2.04-2.13,1.74-3.58-4,1.99-5.05,2.2-12.15,2.37h0Zm0,6.08v3c.14,.03,.27,.04,.41,.05,1.61-.07,3.23-.09,4.83-.24,1.66-.14,3.28-.6,4.77-1.36,1.51-.79,2.45-1.94,2.14-3.82-3.78,2.19-7.92,2.5-12.16,2.38h0Z"/></svg>