<?xml version="1.0" encoding="UTF-8"?><svg id="Layer_1" xmlns="http://www.w3.org/2000/svg" xmlns:xlink="http://www.w3.org/1999/xlink" viewBox="0 0 45.78 51.84"><defs><style>.cls-1{fill:url(#linear-gradient);}</style><linearGradient id="linear-gradient" x1="-636.47" y1="560.5" x2="-635.47" y2="560.5" gradientTransform="translate(29137.08 29082.1) scale(45.78 -51.84)" gradientUnits="userSpaceOnUse"><stop offset="0" stop-color="#20bf55"/><stop offset="1" stop-color="#01baef"/></linearGradient></defs><path id="Path_619" class="cls-1" d="M22.99,0c.45,.18,.88,.39,1.3,.64,1.18,.84,1.67,2.35,1.21,3.73-.16,.56-.54,1.03-1.06,1.29-.25,.1-.48,.26-.66,.45-.3,.44-.88,.59-1.35,.36-.34-.08-.7-.11-1.05-.09-2.48,0-4.96-.01-7.44,0-.51,0-1.03,.14-1.55,.18-.18,0-.36-.05-.51-.15-.29-.2-.52-.53-.83-.64-1.29-.45-1.65-2.32-1.26-3.43,.34-1.06,1.18-1.89,2.25-2.2,.11-.04,.22-.08,.32-.12h10.63Zm9.13,24.49c-7.55,0-13.67,6.11-13.68,13.66,0,7.55,6.11,13.67,13.66,13.68,7.55,0,13.67-6.11,13.68-13.66v-.02c-.02-7.54-6.12-13.64-13.66-13.66h0Zm-4.63,17.52c-.28-.56-.17-1.24,.27-1.69,.53-.56,1.09-1.1,1.64-1.65,1.6-1.6,3.2-3.2,4.8-4.79,.46-.51,1.21-.63,1.81-.29,.6,.29,.91,.97,.76,1.62-.07,.31-.23,.59-.44,.83-2.11,2.14-4.23,4.26-6.37,6.37-.26,.21-.56,.37-.87,.49-.66,.06-1.29-.29-1.59-.88h0Zm-.23-7.23c.04-.83,.74-1.47,1.57-1.46,.83,.03,1.48,.73,1.45,1.57-.03,.83-.72,1.48-1.55,1.45,0,0,0,0-.01,0-.83-.03-1.48-.72-1.46-1.56h0Zm6.46,6.48c0-.83,.69-1.49,1.52-1.48,0,0,0,0,0,0,.83,.01,1.5,.69,1.49,1.53-.02,.83-.71,1.49-1.54,1.49-.83-.02-1.49-.7-1.48-1.53h0ZM8.92,16.26c-2.26,2.57-4.33,5.31-6.2,8.18C.91,27.42-.34,30.54,.08,34.14c.3,4.08,2.74,7.69,6.42,9.49,2.72,1.29,5.69,1.98,8.7,2.03,.63,.03,1.27,0,1.92,0,0-.05,0-.1-.02-.15-1.33-2.71-1.9-5.73-1.64-8.74-.02-.15-.11-.27-.24-.35-.4-.22-.83-.37-1.22-.6-.71-.44-.93-1.37-.49-2.08,.41-.66,1.26-.91,1.96-.56l.57,.28,.99-2.58c-.46-.21-.9-.4-1.3-.62-1.33-.6-2.18-1.93-2.16-3.39-.01-1.49,.86-2.85,2.21-3.48,.15-.09,.25-.23,.29-.4,.04-.84,.75-1.49,1.59-1.45,.73,.03,1.34,.59,1.44,1.32,.05,.18,.17,.33,.34,.41,.96,.4,1.84,.86,1.9,2.13,2.64-2.22,5.9-3.57,9.34-3.89l-5.95-7.29c-1.03,.9-2.38,1.35-3.75,1.26-2.23-.03-4.45-.03-6.68,0-1.35,.09-2.68-.36-3.7-1.25-.58,.7-1.13,1.37-1.67,2.03Zm4.96-6.85c-.84-.09-1.59,.51-1.68,1.34-.09,.84,.51,1.59,1.34,1.68,.1,.01,.21,.01,.31,0,2.54,0,5.09,0,7.63,0,.84,.06,1.56-.57,1.62-1.4,.06-.84-.57-1.56-1.4-1.62-.08,0-.16,0-.23,0-1.27,0-2.53,0-3.79,0s-2.53-.01-3.79-.01h0Zm5.93,17.45c-.4-.2-.78-.39-1.15-.59-.43-.28-.97-.33-1.45-.14-.27,.14-.48,.38-.57,.67,0,.27,.14,.52,.37,.68,.53,.29,1.08,.56,1.64,.79l1.16-1.41Z"/></svg>