<?xml version="1.0" encoding="UTF-8"?><svg id="Layer_1" xmlns="http://www.w3.org/2000/svg" xmlns:xlink="http://www.w3.org/1999/xlink" viewBox="0 0 66.7 80.02"><defs><style>.cls-1{fill:url(#linear-gradient);}</style><linearGradient id="linear-gradient" x1="0" y1="40.01" x2="66.7" y2="40.01" gradientUnits="userSpaceOnUse"><stop offset="0" stop-color="#31c262"/><stop offset="1" stop-color="#01baee"/></linearGradient></defs><path id="Path_699" class="cls-1" d="M34.69,0c1.04,.21,2.09,.39,3.12,.63,7.37,1.99,12.88,8.12,14.09,15.66,.78,4.62-.21,9.36-2.75,13.29-3.26,5.25-8.88,8.58-15.05,8.9-8.03,.52-15.53-3.99-18.85-11.32-2.97-6.79-1.83-14.67,2.93-20.35C20.93,3.54,24.7,1.28,28.88,.4c.74-.15,1.48-.27,2.22-.4h3.59Zm17.48,79.99c.86,0,1.72-.05,2.57-.14,7.1-.74,11.88-5.9,11.96-13.03,.02-2.32-.08-4.63-.31-6.94-.32-4.53-1.57-8.94-3.65-12.97-2.19-4.43-6.44-7.47-11.33-8.13-1.83-.39-3.73,0-5.26,1.09-.88,.65-1.82,1.21-2.75,1.78-6.67,4.12-13.34,4.13-20.01,.03-1.17-.72-2.29-1.54-3.5-2.2-.72-.45-1.54-.73-2.39-.81-2.54-.05-5.04,.55-7.28,1.76-3.64,1.95-5.86,5.13-7.34,8.81C.48,55.39-.44,62,.2,68.55c.28,3.6,2.19,6.87,5.18,8.88,2.65,1.8,5.8,2.7,9,2.56,6.32,0,12.65,0,18.98,0,6.28,0,12.55,0,18.82-.01Z"/></svg>